HIERARCHY
ROOT Hips
{
	OFFSET 0.000000 0.000000 0.000000 
	CHANNELS 6 Xposition Yposition Zposition Zrotation Yrotation Xrotation
	JOINT LeftUpLeg
	{
		OFFSET 1.363060 -1.794630 0.839290 
		CHANNELS 3 Zrotation Yrotation Xrotation
		JOINT LeftLeg
		{
			OFFSET 2.448110 -6.726130 0.000000 
			CHANNELS 3 Zrotation Yrotation Xrotation
			JOINT LeftFoot
			{
				OFFSET 2.562200 -7.039590 0.000000 
				CHANNELS 3 Zrotation Yrotation Xrotation
				JOINT LeftToeBase
				{
					OFFSET 0.157640 -0.433110 2.322550 
					CHANNELS 3 Zrotation Yrotation Xrotation
					End Site
					{
						OFFSET 0.000000 0.000000 0.000000 
					}
				}
			}
		}
	}
	JOINT RightUpLeg
	{
		OFFSET -1.305520 -1.794630 0.839290 
		CHANNELS 3 Zrotation Yrotation Xrotation
		JOINT RightLeg
		{
			OFFSET -2.542530 -6.985550 0.000000 
			CHANNELS 3 Zrotation Yrotation Xrotation
			JOINT RightFoot
			{
				OFFSET -2.568260 -7.056230 0.000000 
				CHANNELS 3 Zrotation Yrotation Xrotation
				JOINT RightToeBase
				{
					OFFSET -0.164730 -0.452590 2.363150 
					CHANNELS 3 Zrotation Yrotation Xrotation
					End Site
					{
						OFFSET 0.000000 0.000000 0.000000 
					}
				}
			}
		}
	}
	JOINT Spine
	{
		OFFSET 0.028270 2.035590 -0.193380 
		CHANNELS 3 Zrotation Yrotation Xrotation
		JOINT Spine1
		{
			OFFSET 0.056720 2.048850 -0.042750 
			CHANNELS 3 Zrotation Yrotation Xrotation
			JOINT Neck1
			{
				OFFSET -0.054170 1.746240 0.172020 
				CHANNELS 3 Zrotation Yrotation Xrotation
				JOINT Head
				{
					OFFSET 0.104070 1.761360 -0.123970 
					CHANNELS 3 Zrotation Yrotation Xrotation
					End Site
					{
						OFFSET 0.000000 0.000000 0.000000 
					}
				}
			}
			JOINT LeftArm
			{
				OFFSET 3.362410 1.200890 -0.311210 
				CHANNELS 3 Zrotation Yrotation Xrotation
				JOINT LeftForeArm
				{
					OFFSET 4.983000 -0.000000 -0.000000 
					CHANNELS 3 Zrotation Yrotation Xrotation
					JOINT LeftHand
					{
						OFFSET 3.483560 -0.000000 -0.000000 
						CHANNELS 3 Zrotation Yrotation Xrotation
						JOINT LeftHandIndex1
						{
							OFFSET 0.715260 -0.000000 -0.000000 
							CHANNELS 3 Zrotation Yrotation Xrotation
							End Site
							{
								OFFSET 0.000000 0.000000 0.000000 
							}
						}
					}
				}
			}
			JOINT RightArm
			{
				OFFSET -3.136600 1.374050 -0.404650 
				CHANNELS 3 Zrotation Yrotation Xrotation
				JOINT RightForeArm
				{
					OFFSET -5.241900 -0.000000 -0.000000 
					CHANNELS 3 Zrotation Yrotation Xrotation
					JOINT RightHand
					{
						OFFSET -3.444170 -0.000000 -0.000000 
						CHANNELS 3 Zrotation Yrotation Xrotation
						JOINT RightHandIndex1
						{
							OFFSET -0.622530 -0.000000 -0.000000 
							CHANNELS 3 Zrotation Yrotation Xrotation
							End Site
							{
								OFFSET 0.000000 0.000000 0.000000 
							}
						}
					}
				}
			}
		}
	}
}
MOTION
Frames: 12
Frame Time: 0.041667
9.803474 17.870119 49.498258 -176.922384 -10.024811 177.337474 -18.156091 -26.527030 1.345092 -2.493777 8.052534 23.012725 -3.888691 12.832071 -4.805988 4.038900 -12.211900 -36.485900 26.544699 21.588278 6.535899 2.999089 -6.288731 21.015727 7.536183 -28.018961 -22.087239 -0.022400 0.966700 -2.657200 1.819688 5.337337 -0.912180 -8.053722 1.632418 -11.552871 2.366387 23.371875 9.906209 -1.923600 11.976500 4.794200 -88.395425 11.210893 32.830305 25.931056 -25.961681 -7.476134 1.616409 0.791699 15.085596 -7.125000 0.000000 0.000000 86.440251 -10.343835 47.203237 -20.425325 23.054195 -5.522691 1.219419 0.267296 14.438793 7.125000 0.000000 0.000000 
9.805474 17.873649 49.496611 -177.036830 -10.161709 177.404461 -18.204568 -26.482407 1.322199 -2.519184 8.003737 22.868487 -3.852997 12.740817 -4.629468 4.083200 -12.270300 -36.695000 26.388732 21.444090 6.355053 2.972438 -6.343840 21.170246 7.473234 -27.866543 -22.160417 -0.013600 0.752500 -2.068000 1.708140 5.266552 -0.919676 -8.008799 1.607404 -11.547938 2.364663 23.376321 9.946964 -1.909900 11.977900 4.816400 -88.424937 11.337621 32.888992 26.126794 -26.154057 -7.555760 1.607786 0.761406 14.850081 -7.125000 0.000000 0.000000 86.377433 -10.285505 47.416584 -20.419123 23.056179 -5.536830 1.219724 0.270443 14.251949 7.125000 0.000000 0.000000 
9.805356 17.877767 49.495317 -177.129898 -10.072758 177.569212 -18.241537 -26.455960 1.199497 -2.527744 7.995062 22.826900 -3.885799 12.821108 -4.603235 4.149800 -12.357100 -37.007200 26.087540 21.197638 5.968414 2.950254 -6.376016 21.209384 7.448353 -27.628741 -21.734048 -0.012200 0.713100 -1.959800 1.702292 5.345665 -1.032943 -7.965585 1.653282 -11.523136 2.325248 23.361585 9.849977 -1.927000 11.960700 4.777700 -88.519812 11.336853 32.845418 25.955919 -25.956450 -7.462362 1.587244 0.793877 15.614181 -7.125000 0.000000 0.000000 86.343387 -10.299169 47.318443 -20.394301 23.023455 -5.528435 1.220987 0.268282 14.385952 7.125000 0.000000 0.000000 
9.805827 17.875296 49.495788 -177.163848 -9.899773 177.704961 -18.224742 -26.378717 1.095822 -2.540839 7.978730 22.766643 -3.950297 12.976060 -4.600403 4.099400 -12.291500 -36.771100 25.883946 21.053860 5.637893 2.926579 -6.415606 21.257570 7.459252 -27.497198 -21.299320 -0.026200 1.045700 -2.874500 1.702568 5.479525 -1.210708 -7.974798 1.713361 -11.550940 2.269401 23.344650 9.688299 -1.968800 11.941200 4.708800 -88.503537 11.308747 32.887928 26.044247 -26.060953 -7.510096 1.616894 0.753569 14.992411 -7.125000 0.000000 0.000000 86.304394 -10.414260 47.243742 -20.417381 23.044979 -5.534980 1.221174 0.261409 14.579439 7.125000 0.000000 0.000000 
9.809004 17.871296 49.492846 -177.179362 -10.093072 177.693180 -18.208302 -26.363343 1.107354 -2.547772 7.961769 22.717136 -3.947866 12.965535 -4.497070 4.046600 -12.222100 -36.522400 25.946305 21.106824 5.716588 2.927083 -6.421851 21.296683 7.418438 -27.465423 -21.509689 -0.022400 0.965700 -2.654300 1.603984 5.407645 -1.172475 -7.981251 1.684675 -11.522743 2.197197 23.353136 9.546039 -2.013100 11.936900 4.663300 -88.522843 11.635116 32.813866 26.421828 -26.448530 -7.689391 1.583264 0.739777 14.794248 -7.125000 0.000000 0.000000 86.314993 -10.385603 47.268300 -20.418091 23.047907 -5.542677 1.221993 0.258484 14.611155 7.125000 0.000000 0.000000 
9.811945 17.876237 49.489787 -177.196652 -10.145000 177.730696 -18.190561 -26.406632 1.114165 -2.554756 7.944808 22.671445 -3.922188 12.899890 -4.445869 4.070700 -12.253900 -36.636100 25.893788 20.916641 5.591040 2.912610 -6.438243 21.339529 7.360792 -27.252423 -21.325699 -0.017200 0.845900 -2.324900 1.508219 5.424974 -1.138077 -7.983412 1.707752 -11.475517 2.674242 23.392861 9.361464 -1.871700 11.959200 4.504000 -88.308623 11.657327 33.309886 26.446182 -26.464894 -7.708067 1.542626 0.784941 14.390617 -7.125000 0.000000 0.000000 86.383146 -10.263015 47.232820 -20.354416 22.971176 -5.519495 1.225625 0.258526 14.546237 7.125000 0.000000 0.000000 
9.815711 17.883180 49.486727 -177.260538 -10.108343 177.864258 -18.189458 -26.415447 1.035874 -2.559741 7.932252 22.637227 -3.861781 12.752012 -4.391871 4.149700 -12.356900 -37.006600 25.730599 20.763111 5.352744 2.904544 -6.456602 21.349858 7.399231 -27.279718 -21.146708 -0.020200 0.916700 -2.519600 1.472198 5.516617 -1.233413 -7.958086 1.774584 -11.479373 3.860738 23.443071 9.200620 -1.487100 12.001500 4.223600 -88.601042 11.525497 32.391311 26.386392 -26.408838 -7.665546 1.564507 0.765789 15.103493 -7.125000 0.000000 0.000000 86.415137 -10.225997 47.204411 -20.302160 22.894691 -5.492769 1.230378 0.256683 14.441179 7.125000 0.000000 0.000000 
9.823006 17.881179 49.481433 -177.275730 -10.291541 177.831818 -18.169573 -26.360315 1.040749 -2.560761 7.920723 22.614686 -3.817790 12.640764 -4.283734 4.317200 -12.571000 -37.783100 25.821043 20.826943 5.485835 2.914984 -6.452678 21.360665 7.438914 -27.509932 -21.507264 -0.018200 0.871400 -2.395100 1.490200 5.486532 -1.183939 -7.894688 1.782848 -11.479028 4.686158 23.482867 9.111857 -1.209900 12.032200 4.037000 -88.319736 11.569879 33.570537 26.416904 -26.414481 -7.666710 1.598788 0.691028 14.022554 -7.125000 0.000000 0.000000 86.328729 -10.283350 47.251756 -20.369769 22.975298 -5.523455 1.228218 0.261293 14.376164 7.125000 0.000000 0.000000 
9.829007 17.876237 49.476255 -177.210427 -10.646016 177.720661 -18.094614 -26.384412 1.093647 -2.553560 7.918378 22.620488 -3.769141 12.514139 -4.142239 4.440600 -12.724800 -38.346700 26.095165 20.973727 5.795151 2.938012 -6.432054 21.359327 7.425499 -27.709861 -22.124519 -0.009700 0.634700 -1.744200 1.537690 5.350187 -1.087444 -7.892039 1.728097 -11.485471 5.192161 23.590925 8.766057 -1.192700 12.081200 4.262100 -88.714349 11.469965 32.251526 26.219641 -26.217650 -7.570223 1.537396 0.802191 15.823310 -7.125000 0.000000 0.000000 86.233592 -10.350147 47.332057 -20.452575 23.067189 -5.560140 1.225037 0.264324 14.451751 7.125000 0.000000 0.000000 
9.831595 17.879650 49.477314 -177.191423 -10.493877 177.824585 -18.017041 -26.371496 0.968864 -2.547993 7.930745 22.650097 -3.738624 12.440234 -4.174875 4.229100 -12.459100 -37.376200 26.088575 21.131725 5.745372 2.952570 -6.414769 21.277566 7.445443 -27.729131 -22.039878 -0.008700 0.601300 -1.652400 1.525160 5.430738 -1.152961 -7.918194 1.765878 -11.462471 5.263137 23.642891 8.656909 -1.174900 12.100800 4.195600 -88.541508 11.415628 32.677325 26.210700 -26.214218 -7.567655 1.602820 0.729490 14.888233 -7.125000 0.000000 0.000000 86.237659 -10.320846 47.170631 -20.471408 23.084006 -5.565554 1.224759 0.255290 14.989831 7.125000 0.000000 0.000000 
9.838184 17.876237 49.475432 -177.153858 -10.465682 177.682393 -18.016527 -26.329223 1.029506 -2.527378 7.959806 22.752181 -3.669057 12.274610 -4.191484 4.032400 -12.203400 -36.455500 26.203286 21.091693 5.933069 2.966551 -6.372108 21.195440 7.455386 -27.767854 -22.044742 -0.009200 0.618600 -1.700000 1.578129 5.431324 -0.990971 -7.900645 1.770267 -11.470055 5.104175 23.572637 8.691478 -1.227300 12.064300 4.250200 -88.474068 11.438792 33.035672 26.225553 -26.213126 -7.568320 1.566080 0.756910 14.984623 -7.125000 0.000000 0.000000 86.267322 -10.239519 46.948722 -20.492211 23.114487 -5.581549 1.221932 0.251523 15.533594 7.125000 0.000000 0.000000 
9.836302 17.882238 49.476138 -177.066099 -10.436355 177.869162 -17.865132 -26.415681 0.823913 -2.522463 7.975781 22.761485 -3.736476 12.430928 -4.143649 4.138700 -12.342700 -36.955200 26.119576 20.939235 5.614734 2.971964 -6.365701 21.120071 7.498586 -27.772369 -21.742852 -0.016700 0.835200 -2.295300 1.682675 5.394039 -1.060616 -7.890852 1.722257 -11.324399 3.091188 23.362839 9.015522 -1.730600 11.921300 4.282200 -88.629679 11.310733 32.599286 26.312590 -26.324605 -7.621113 1.602267 0.721957 14.552161 -7.125000 0.000000 0.000000 86.193131 -10.101305 47.128776 -20.451514 23.081101 -5.576126 1.221323 0.257256 15.256507 7.125000 0.000000 0.000000 
